<svg width="0" height="0" class="hidden">
  <symbol fill="none" xmlns="http://www.w3.org/2000/svg" viewBox="0 0 15 15" id="vk">
    <g opacity=".7" clip-path="url(#clip0)">
      <path d="M14.866 10.854c-.04-.067-.29-.609-1.49-1.723-1.256-1.166-1.087-.977.426-2.993.922-1.229 1.29-1.979 1.175-2.3-.11-.305-.788-.224-.788-.224l-2.254.013s-.166-.023-.291.051c-.121.073-.199.242-.199.242s-.357.95-.833 1.76c-1.005 1.705-1.407 1.795-1.57 1.689-.382-.247-.287-.992-.287-1.521 0-1.653.25-2.342-.488-2.52-.246-.06-.426-.099-1.053-.105-.805-.009-1.486.002-1.872.19-.256.127-.454.407-.333.423.149.02.486.09.665.335.232.314.224 1.02.224 1.02s.133 1.946-.31 2.188c-.306.166-.723-.173-1.618-1.72-.459-.793-.806-1.67-.806-1.67s-.066-.163-.185-.25a.941.941 0 00-.347-.14l-2.143.014s-.322.01-.44.149c-.105.124-.008.381-.008.381s1.678 3.926 3.577 5.905c1.743 1.814 3.722 1.695 3.722 1.695h.896s.27-.03.409-.179c.127-.137.122-.394.122-.394s-.017-1.202.541-1.38c.55-.174 1.258 1.163 2.007 1.678.566.389.996.303.996.303l2.004-.028s1.048-.064.551-.889z" fill="#fff"></path>
    </g>
    <defs>
      <clipPath id="clip0">
        <path fill="#fff" d="M0 0h15v15H0z"></path>
      </clipPath>
    </defs>
  </symbol>
  <symbol fill="none" xmlns="http://www.w3.org/2000/svg" viewBox="0 0 15 15" id="facebook">
    <g opacity=".7" clip-path="url(#clip0)">
      <path d="M11.25.003L9.304 0C7.12 0 5.707 1.449 5.707 3.691v1.703H3.75a.306.306 0 00-.306.306v2.466c0 .169.137.305.306.305h1.956v6.223c0 .169.137.306.306.306h2.551a.306.306 0 00.306-.306V8.471h2.287a.306.306 0 00.306-.305V5.7a.306.306 0 00-.305-.306H8.87V3.95c0-.694.166-1.046 1.069-1.046h1.31a.306.306 0 00.306-.306V.309a.306.306 0 00-.305-.306z" fill="#fff"></path>
    </g>
    <defs>
      <clipPath id="clip0">
        <path fill="#fff" d="M0 0h15v15H0z"></path>
      </clipPath>
    </defs>
  </symbol>
  <symbol fill="none" xmlns="http://www.w3.org/2000/svg" viewBox="0 0 23 23" id="instagram">
    <g opacity=".7" filter="url(#filter0_d)" fill="#fff">
      <path d="M14.313 0H8.686A4.688 4.688 0 004 4.688v5.625A4.69 4.69 0 008.688 15h5.624C16.901 15 19 12.9 19 10.312V4.689C19 2.099 16.9 0 14.312 0zm3.28 10.313a3.285 3.285 0 01-3.28 3.28H8.686a3.285 3.285 0 01-3.28-3.28V4.686a3.285 3.285 0 013.28-3.28h5.626a3.285 3.285 0 013.28 3.28v5.625z"></path>
      <path d="M11.5 3.75a3.75 3.75 0 100 7.5 3.75 3.75 0 000-7.5zm0 6.094A2.347 2.347 0 019.156 7.5 2.346 2.346 0 0111.5 5.156 2.346 2.346 0 0113.844 7.5 2.347 2.347 0 0111.5 9.844zm4.031-5.876a.5.5 0 100-.999.5.5 0 000 1z"></path>
    </g>
    <defs>
      <filter id="filter0_d" x="0" y="0" width="23" height="23" filterUnits="userSpaceOnUse" color-interpolation-filters="sRGB">
        <feFlood flood-opacity="0" result="BackgroundImageFix"></feFlood>
        <feColorMatrix in="SourceAlpha" values="0 0 0 0 0 0 0 0 0 0 0 0 0 0 0 0 0 0 127 0"></feColorMatrix>
        <feOffset dy="4"></feOffset>
        <feGaussianBlur stdDeviation="2"></feGaussianBlur>
        <feColorMatrix values="0 0 0 0 0 0 0 0 0 0 0 0 0 0 0 0 0 0 0.25 0"></feColorMatrix>
        <feBlend in2="BackgroundImageFix" result="effect1_dropShadow"></feBlend>
        <feBlend in="SourceGraphic" in2="effect1_dropShadow" result="shape"></feBlend>
      </filter>
    </defs>
  </symbol>
</svg>

